<svg width="75" height="70" viewBox="0 0 75 70" fill="none" xmlns="http://www.w3.org/2000/svg">
<g filter="url(#filter0_bd_265_661)">
<path d="M65.6076 45.6917C61.2258 37.9591 56.7409 30.2523 52.3075 22.5455C49.6527 17.906 46.9205 13.318 44.343 8.62688C40.9149 2.44082 32.5637 1.20361 27.5117 6.12668C26.2487 7.33812 25.3981 8.83309 24.7795 10.4569C24.728 10.56 24.6507 10.6374 24.5991 10.7405C19.4698 19.5814 14.3663 28.4481 9.26282 37.3148C7.68602 40.0413 6.03543 42.7323 4.52017 45.4597C3.25718 47.5733 2.76745 49.8673 3.10253 52.316C3.79846 57.3679 7.79363 61.1827 12.8714 61.5435C17.3047 61.827 20.6813 59.9454 22.9753 56.1565C25.5706 52.0039 27.904 47.5819 30.3728 43.3204C31.9451 40.6398 35.0123 35.3301 35.0123 35.3301C35.0123 35.3301 43.1489 49.3688 46.972 56.0276C49.2918 60.0485 53.4932 62.1106 57.9781 61.4404C65.2983 60.3321 69.2934 52.1613 65.6076 45.6917Z" stroke="url(#paint0_linear_265_661)" stroke-opacity="0.7" stroke-linecap="round" stroke-linejoin="round"/>
</g>
<defs>
<filter id="filter0_bd_265_661" x="0.0222154" y="0.115782" width="74.9131" height="69.389" filterUnits="userSpaceOnUse" color-interpolation-filters="sRGB">
<feFlood flood-opacity="0" result="BackgroundImageFix"/>
<feGaussianBlur in="BackgroundImage" stdDeviation="1"/>
<feComposite in2="SourceAlpha" operator="in" result="effect1_backgroundBlur_265_661"/>
<feColorMatrix in="SourceAlpha" type="matrix" values="0 0 0 0 0 0 0 0 0 0 0 0 0 0 0 0 0 0 127 0" result="hardAlpha"/>
<feOffset dx="2.47778" dy="2.47778"/>
<feGaussianBlur stdDeviation="2.47778"/>
<feColorMatrix type="matrix" values="0 0 0 0 0.15375 0 0 0 0 0.522433 0 0 0 0 0.9 0 0 0 0.5 0"/>
<feBlend mode="normal" in2="effect1_backgroundBlur_265_661" result="effect2_dropShadow_265_661"/>
<feBlend mode="normal" in="SourceGraphic" in2="effect2_dropShadow_265_661" result="shape"/>
</filter>
<linearGradient id="paint0_linear_265_661" x1="9.89435" y1="22.7101" x2="64.2401" y2="23.0385" gradientUnits="userSpaceOnUse">
<stop stop-color="white"/>
<stop offset="1" stop-color="white" stop-opacity="0.4"/>
</linearGradient>
</defs>
</svg>
